<?xml version="1.0" encoding="utf-8"?>
<!-- Generator: Adobe Illustrator 19.0.0, SVG Export Plug-In . SVG Version: 6.00 Build 0)  -->
<svg version="1.1" id="Layer_1" xmlns="http://www.w3.org/2000/svg" xmlns:xlink="http://www.w3.org/1999/xlink" x="0px" y="0px"
	 viewBox="0 0 156.5 156.6" style="enable-background:new 0 0 156.5 156.6;" xml:space="preserve">
<style type="text/css">
	.st0{clip-path:url(#XMLID_64_);fill:#2A65AF;}
	.st1{clip-path:url(#XMLID_66_);fill:#53BEC2;}
	.st2{clip-path:url(#XMLID_67_);fill:#2A65AF;}
</style>
<g id="XMLID_74_">
	<defs>
		<rect id="XMLID_60_" y="-12" width="157.9" height="143.7"/>
	</defs>
	<clipPath id="XMLID_64_">
		<use xlink:href="#XMLID_60_"  style="overflow:visible;"/>
	</clipPath>
	<path id="XMLID_61_" class="st0" d="M120.4,105.3c-20.7,0-37.5-16.8-37.5-37.5c0-20.7,16.8-37.5,37.5-37.5
		c20.7,0,37.5,16.8,37.5,37.5c0,20.4-17.3,56.7-37.5,57.3"/>
</g>
<g id="XMLID_68_">
	<defs>
		<rect id="XMLID_4_" y="0.2" width="157.9" height="124.8"/>
	</defs>
	<clipPath id="XMLID_66_">
		<use xlink:href="#XMLID_4_"  style="overflow:visible;"/>
	</clipPath>
	<path id="XMLID_71_" class="st1" d="M108.5,58.8h11.9v9.1c0,3.4-0.7,6-2.1,8c-1.4,1.9-3.8,3.7-7.2,5.2l-2.6-4.8
		c2.1-1,3.5-2,4.3-2.9c0.8-1,1.2-2.1,1.3-3.4h-5.7V58.8z M122.3,58.8h11.9v9.1c0,3.4-0.7,6-2.1,8s-3.8,3.7-7.2,5.2l-2.6-4.8
		c2.1-1,3.5-2,4.3-2.9c0.8-1,1.2-2.1,1.3-3.4h-5.7V58.8z"/>
	<path id="XMLID_5_" class="st1" d="M37.5,75.3C58.2,75.3,75,58.5,75,37.8C75,17,58.2,0.2,37.5,0.2S0,17,0,37.8
		C0,58.1,17.3,94.5,37.5,95"/>
</g>
<g id="XMLID_63_">
	<defs>
		<rect id="XMLID_1_" y="-12" width="157.9" height="143.7"/>
	</defs>
	<clipPath id="XMLID_67_">
		<use xlink:href="#XMLID_1_"  style="overflow:visible;"/>
	</clipPath>
	<path id="XMLID_65_" class="st2" d="M49.4,39.7h-5.7c0.1,1.3,0.5,2.5,1.3,3.4c0.8,1,2.2,1.9,4.3,2.9l-2.6,4.8
		c-3.4-1.5-5.8-3.2-7.2-5.2s-2.1-4.6-2.1-8v-9.1h11.9V39.7z M35.6,39.7h-5.7c0.1,1.3,0.5,2.5,1.3,3.4c0.8,1,2.2,1.9,4.3,2.9L33,50.9
		c-3.4-1.5-5.8-3.2-7.2-5.2c-1.4-1.9-2.1-4.6-2.1-8v-9.1h11.9V39.7z"/>
</g>
</svg>
