<?xml version="1.0" encoding="utf-8"?>
<!-- Generator: Adobe Illustrator 19.0.0, SVG Export Plug-In . SVG Version: 6.00 Build 0)  -->
<svg version="1.1" id="Layer_1" xmlns="http://www.w3.org/2000/svg" xmlns:xlink="http://www.w3.org/1999/xlink" x="0px" y="0px"
	 viewBox="0 0 156.5 156.6" style="enable-background:new 0 0 156.5 156.6;" xml:space="preserve">
<style type="text/css">
	.st0{clip-path:url(#XMLID_64_);fill:#2A65AF;}
	.st1{clip-path:url(#XMLID_65_);fill:#53BEC2;}
	.st2{clip-path:url(#XMLID_65_);fill:#2A65AF;}
</style>
<g>
	<defs>
		<rect id="XMLID_61_" x="27.8" y="-0.4" width="101.7" height="157.4"/>
	</defs>
	<clipPath id="XMLID_64_">
		<use xlink:href="#XMLID_61_"  style="overflow:visible;"/>
	</clipPath>
	<path id="XMLID_62_" class="st0" d="M56,155.1L35.2,155c-4,0-7.3-3.3-7.3-7.4l0.2-55.5c0-4,3.3-7.3,7.4-7.3l20.9,0.1
		c4.1,0,7.3,3.3,7.3,7.4l-0.2,55.5C63.4,151.8,60.1,155.1,56,155.1"/>
</g>
<g>
	<defs>
		<rect id="XMLID_1_" x="0" y="-0.4" width="157.4" height="157.4"/>
	</defs>
	<clipPath id="XMLID_65_">
		<use xlink:href="#XMLID_1_"  style="overflow:visible;"/>
	</clipPath>
	<path id="XMLID_60_" class="st1" d="M53.1,142.6L53.1,142.6c-2.2,0-3.9-1.8-3.9-3.9l0.2-39.5c0-2.2,1.8-3.9,3.9-3.9
		c2.2,0,3.9,1.8,3.9,3.9L57,138.7C57,140.8,55.3,142.6,53.1,142.6"/>
	<path id="XMLID_59_" class="st1" d="M39.2,142.5L39.2,142.5c-2.2,0-3.9-1.8-3.9-3.9l0.2-39.5c0-2.2,1.8-3.9,3.9-3.9
		c2.2,0,3.9,1.8,3.9,3.9l-0.2,39.5C43.2,140.8,41.4,142.5,39.2,142.5"/>
	<path id="XMLID_6_" class="st2" d="M53.7,81.2c0-1.9,1.3-3.4,3-3.9c-0.3-0.1-0.6-0.1-1-0.1l-19.1-0.1c-0.4,0-0.8,0.1-1.2,0.2
		c1.6,0.6,2.8,2.1,2.7,3.8c0,1.8-1.2,3.3-2.9,3.9c0.3,0.1,0.7,0.2,1.1,0.2l19.1,0.1c0.4,0,0.7-0.1,1.1-0.2
		C54.9,84.6,53.7,83,53.7,81.2"/>
	<path id="XMLID_5_" class="st2" d="M56.6,77.5l-21.4-0.1c-2.3,0-4.1-1.9-4.1-4.2c0-2.3,1.9-4.1,4.2-4.1l21.4,0.1
		c2.3,0,4.1,1.9,4.1,4.2C60.8,75.6,58.9,77.5,56.6,77.5"/>
	<polygon id="XMLID_4_" class="st2" points="41.3,-0.4 43.1,16.3 42.9,68.8 49.1,68.9 49.3,16.3 51.3,-0.3 	"/>
	<path class="st2" d="M114.3,112.8V41.9c8.7-3.2,15-11.6,15-21.4c0-8.6-4.8-16.1-11.8-20v20h-22v-20c-7,3.9-11.8,11.4-11.8,20
		c0,9.8,6.3,18.2,15,21.4v71c-8.6,3.2-14.8,11.6-14.8,21.3c0,12.6,10.2,22.8,22.8,22.8c12.6,0,22.8-10.2,22.8-22.8
		C129.5,124.3,123.2,115.9,114.3,112.8 M113.7,146.4H99.7l-7-12.2l7-12.2h14.1l7,12.2L113.7,146.4z"/>
</g>
</svg>
