<?xml version="1.0" encoding="utf-8"?>
<!-- Generator: Adobe Illustrator 19.0.0, SVG Export Plug-In . SVG Version: 6.00 Build 0)  -->
<svg version="1.1" id="Layer_1" xmlns="http://www.w3.org/2000/svg" xmlns:xlink="http://www.w3.org/1999/xlink" x="0px" y="0px"
	 viewBox="0 0 156.5 156.6" style="enable-background:new 0 0 156.5 156.6;" xml:space="preserve">
<style type="text/css">
	.st0{clip-path:url(#XMLID_69_);fill:#53BEC2;}
	.st1{clip-path:url(#XMLID_69_);fill:#2A65AF;}
	.st2{clip-path:url(#XMLID_69_);fill:#F1F0EF;}
	.st3{clip-path:url(#XMLID_69_);fill:#1B4067;}
	.st4{clip-path:url(#XMLID_69_);fill:#FFFFFF;}
	.st5{clip-path:url(#XMLID_69_);fill:none;stroke:#1B4067;stroke-width:4.2103;stroke-miterlimit:10;}
	.st6{clip-path:url(#XMLID_69_);fill:#C3C2C4;}
</style>
<g id="XMLID_68_">
	<defs>
		<rect id="XMLID_1_" x="0" y="-8.9" width="154.6" height="154.7"/>
	</defs>
	<clipPath id="XMLID_69_">
		<use xlink:href="#XMLID_1_"  style="overflow:visible;"/>
	</clipPath>
	<path id="XMLID_66_" class="st0" d="M154.6,68.4c0,37.8-30.6,68.4-68.4,68.4s-68.4-30.6-68.4-68.4C17.7,30.6,48.3,0,86.1,0
		S154.6,30.6,154.6,68.4"/>
	<path id="XMLID_65_" class="st1" d="M60.7,118.3H7.3c0,0-5.7-9.8-7.3-22.9h60.7V118.3z"/>
	<rect id="XMLID_64_" x="60.7" y="96.9" class="st2" width="5.8" height="19.8"/>
	<path id="XMLID_63_" class="st3" d="M49.8,99.4c0,0.7,0.6,1.3,1.3,1.3c0.7,0,1.3-0.6,1.3-1.3c0-0.7-0.6-1.3-1.3-1.3
		C50.4,98.1,49.8,98.6,49.8,99.4"/>
	<path id="XMLID_62_" class="st3" d="M44.3,99.4c0,0.7,0.6,1.3,1.3,1.3c0.7,0,1.3-0.6,1.3-1.3c0-0.7-0.6-1.3-1.3-1.3
		C44.9,98.1,44.3,98.6,44.3,99.4"/>
	<path id="XMLID_61_" class="st3" d="M55,99.4c0,0.7,0.6,1.3,1.3,1.3c0.7,0,1.3-0.6,1.3-1.3c0-0.7-0.6-1.3-1.3-1.3
		C55.5,98.1,55,98.6,55,99.4"/>
	<path id="XMLID_60_" class="st4" d="M67.2,98.1h2.2l2-2.6c0,0,1.6-1.8-0.2-4.8l-2.4-4.9c0,0-1.1-2.3,1.8-1.8c2.9,0.5,3,2.7,6.4,9.4
		c0,0,1.3,4.3,5.5,2.6c4.2-1.7,13.4-6,17.9-10c0,0,2.3-2.3,5.5-2.1c0,0,2.7,1,0.5,3.2c-2.2,2.2-16.1,14.4-16.1,14.4
		s-5.2,4.8-12.8,7.6c-7.6,2.8-11,3.9-11,3.9v-15H67.2z"/>
	<path id="XMLID_59_" class="st4" d="M56.2,78.7h59.9c3.9,0,7.2-3.2,7.2-7.2V33.9c0-3.9-3.2-7.2-7.2-7.2H56.2
		c-3.9,0-7.2,3.2-7.2,7.2v37.7C49,75.5,52.2,78.7,56.2,78.7"/>
	<path id="XMLID_6_" class="st5" d="M56.2,78.7h59.9c3.9,0,7.2-3.2,7.2-7.2V33.9c0-3.9-3.2-7.2-7.2-7.2H56.2c-3.9,0-7.2,3.2-7.2,7.2
		v37.7C49,75.5,52.2,78.7,56.2,78.7z"/>
	<rect id="XMLID_5_" x="29.1" y="79.9" class="st2" width="113.1" height="4"/>
	<rect id="XMLID_4_" x="60.4" y="36.4" class="st6" width="53.1" height="5.8"/>
	<rect id="XMLID_3_" x="60.4" y="49.8" class="st6" width="53.1" height="5.8"/>
	<rect id="XMLID_2_" x="60.4" y="62.6" class="st6" width="53.1" height="5.8"/>
</g>
</svg>
