<?xml version="1.0" encoding="utf-8"?>
<!-- Generator: Adobe Illustrator 19.0.0, SVG Export Plug-In . SVG Version: 6.00 Build 0)  -->
<svg version="1.1" id="Layer_1" xmlns="http://www.w3.org/2000/svg" xmlns:xlink="http://www.w3.org/1999/xlink" x="0px" y="0px"
	 viewBox="0 0 156.5 156.6" style="enable-background:new 0 0 156.5 156.6;" xml:space="preserve">
<style type="text/css">
	.st0{clip-path:url(#XMLID_60_);fill:#53BEC2;}
	.st1{clip-path:url(#XMLID_60_);fill:#2A65AF;}
</style>
<g>
	<defs>
		<rect id="XMLID_1_" width="156.5" height="156.6"/>
	</defs>
	<clipPath id="XMLID_60_">
		<use xlink:href="#XMLID_1_"  style="overflow:visible;"/>
	</clipPath>
	<path id="XMLID_6_" class="st0" d="M156.5,78.3c0,43.2-35,78.2-78.2,78.2S0,121.5,0,78.3C0,35.1,35,0,78.2,0S156.5,35.1,156.5,78.3
		"/>
	<path id="XMLID_5_" class="st1" d="M78.2,19.8c7.9,0,14.3,6.4,14.3,14.3s-6.4,14.3-14.3,14.3c-7.9,0-14.3-6.4-14.3-14.3
		S70.3,19.8,78.2,19.8"/>
	<polyline id="XMLID_4_" class="st1" points="93.2,102.2 93.2,62.1 134.5,25.5 126.9,16.9 86.9,52.4 69.6,52.4 29.5,16.9 22,25.5 
		62.7,61.6 62.7,102.2 	"/>
	<polygon id="XMLID_3_" class="st1" points="108.7,149.1 97.6,152.8 79.2,101.4 92.6,101.4 	"/>
	<polygon id="XMLID_2_" class="st1" points="47.2,149.1 58.3,152.8 77.4,101.4 63.3,101.4 	"/>
</g>
</svg>
