<?xml version="1.0" encoding="utf-8"?>
<!-- Generator: Adobe Illustrator 20.1.0, SVG Export Plug-In . SVG Version: 6.00 Build 0)  -->
<svg version="1.1" id="Livello_1" xmlns="http://www.w3.org/2000/svg" xmlns:xlink="http://www.w3.org/1999/xlink" x="0px" y="0px"
	 viewBox="0 0 558 100" style="enable-background:new 0 0 558 100;" xml:space="preserve">
<style type="text/css">
	.st0{fill:#D9ECFA;stroke:#0066CC;stroke-width:0.5009;stroke-miterlimit:10;enable-background:new    ;}
	.st1{fill:#FFFFFF;}
	.st2{fill:#0066CC;}
	.st3{fill:#53BBC0;}
	.st4{fill:#F8B736;}
	.st5{fill:#2865AC;}
	.st6{fill:#225680;}
	.st7{fill:#183F73;}
	.st8{fill:#2764AD;}
	.st9{opacity:0.6;}
	.st10{opacity:0.2;}
	.st11{fill:none;}
</style>
<rect id="_Rettangolo_" y="0.3" class="st0" width="558" height="99.4"/>
<title>Tavola disegno 1</title>
<g id="_Gruppo_44">
	<ellipse id="_Tracciato_" class="st1" cx="38.1" cy="59.4" rx="24.1" ry="6.1"/>
	<ellipse id="_Tracciato_2" class="st1" cx="46.5" cy="53.3" rx="24.1" ry="6.1"/>
	<ellipse id="_Tracciato_3" class="st1" cx="56.6" cy="58.7" rx="24.1" ry="6.1"/>
	<ellipse id="_Tracciato_4" class="st1" cx="54.2" cy="62.6" rx="24.1" ry="6.1"/>
</g>
<g id="_Gruppo_45">
	<path class="st2" d="M122.1,61.7l-7.2-0.1c0,0,0.1-4.1,0-21.8l0,0v-1.2c0-10.1,8.2-18.3,18.3-18.3c0,0,0,0,0,0h28v7.2h-28
		c-6.1,0-11.1,5-11.1,11.1v0.1v1.1C122.2,57.6,122.1,61.6,122.1,61.7z"/>
</g>
<g id="_Gruppo_46">
	<path class="st2" d="M109.2,80.2c0,0-0.1-4.1,0-21.9v-1.2c0-7.3-5.9-13.3-13.3-13.3c0,0,0,0-0.1,0v-2.9c8.9,0,16.1,7.2,16.1,16.1
		v1.2c-0.1,17.8,0,21.8,0,21.9L109.2,80.2z"/>
</g>
<g id="_Gruppo_47">
	<rect x="121.2" y="36.3" class="st2" width="28" height="7.2"/>
</g>
<g id="_Gruppo_48">
	<path class="st3" d="M119.5,61.4h-0.9c0-1,0-1.6,0-2c0-0.1,0-0.2,0-0.2v-1.8c0-5,4-9,9-9h2.3c4.5,0,8.2-3.7,8.2-8.2V17.6h0.9v22.5
		c0,5-4,9-9,9h-1.2h-1.1c-4.5,0-8.2,3.7-8.2,8.2v0.7c0,0.4,0,0.6,0,0.9l0,0c0,0,0,0,0,0.1c0,0.1,0,0.2,0,0.3s0,0.1,0,0.1v0.1l0,0
		C119.5,59.8,119.5,60.4,119.5,61.4z"/>
</g>
<g id="_Gruppo_49">
	<path class="st4" d="M110.8,64.7h-0.6V18.6c0-4.2-3.4-7.6-7.6-7.6H102v-0.6h0.6c4.5,0,8.1,3.7,8.1,8.1L110.8,64.7z"/>
</g>
<g id="_Gruppo_50">
	<polygon class="st2" points="160,13 173.1,23.9 160,34.8 	"/>
</g>
<g id="_Gruppo_51">
	<polygon class="st2" points="147.1,33.5 156.9,39.5 147.1,45.4 	"/>
</g>
<g id="_Gruppo_52">
	<polygon class="st3" points="136.3,17.8 138.6,14 140.9,17.8 	"/>
</g>
<g id="_Gruppo_53">
	<polygon class="st2" points="97.5,48.3 87.7,42.4 97.5,36.4 	"/>
</g>
<g id="_Gruppo_54">
	<polygon class="st4" points="101.8,12.8 98.2,10.6 101.8,8.5 	"/>
</g>
<g id="_Gruppo_55">
	<polygon class="st1" points="160.3,49.8 163.8,52 160.3,54.1 	"/>
</g>
<g id="_Gruppo_56">
	<g id="_Gruppo_57">
		<path class="st4" d="M137.7,60.1l1.9-1.2l-0.4-1.7H137c-0.4-0.8-0.9-1.4-1.6-2l0.6-2.2l-1.5-0.9l-1.6,1.5
			c-0.8-0.3-1.7-0.4-2.6-0.3l-1.2-2l-1.7,0.4v2.3c-0.8,0.4-1.4,0.9-2,1.6l-2.2-0.6l-0.9,1.5l1.5,1.7c-0.3,0.8-0.4,1.7-0.3,2.6
			l-2,1.2l0.4,1.7h2.3c0.4,0.8,1,1.5,1.6,2.1l-0.6,2.2l1.5,0.9l1.6-1.6c0.8,0.3,1.7,0.4,2.6,0.3l1.1,1.9l1.7-0.4l0.1-2.3
			c0.8-0.4,1.4-0.9,2-1.6l2.2,0.6l0.9-1.5l-1.6-1.6C137.7,61.9,137.8,61,137.7,60.1z"/>
	</g>
	<g id="_Gruppo_58">
		
			<ellipse transform="matrix(0.9968 -8.054686e-02 8.054686e-02 0.9968 -4.4454 10.7143)" class="st5" cx="130.6" cy="60.5" rx="4.2" ry="4.2"/>
	</g>
	<g id="_Gruppo_59">
		<circle class="st6" cx="130.6" cy="60.5" r="1.9"/>
	</g>
</g>
<g id="_Gruppo_60">
	<g id="_Gruppo_61">
		<path class="st7" d="M122.7,57.5l1.1-0.9l-0.4-1l-1.4,0.2c-0.3-0.4-0.7-0.8-1.1-1.1l0.2-1.4l-1-0.4l-0.8,1.1
			c-0.5-0.1-1.1-0.1-1.6,0l-0.9-1.1l-1,0.4l0.2,1.3c-0.4,0.3-0.8,0.7-1.1,1.2l-1.4-0.2l-0.4,1l1.1,0.8c-0.1,0.5-0.1,1.1,0,1.6
			l-1.1,0.9l0.4,1l1.4-0.2c0.3,0.4,0.7,0.8,1.1,1.1l-0.1,1.4l1,0.4l0.8-1.1c0.5,0.1,1.1,0.1,1.6,0l0.9,1.1l1-0.4l-0.2-1.4
			c0.4-0.3,0.8-0.7,1.1-1.2l1.4,0.2l0.4-1l-1.1-0.8C122.8,58.6,122.8,58.1,122.7,57.5z"/>
	</g>
	<g id="_Gruppo_62">
		<ellipse transform="matrix(0.9756 -0.2195 0.2195 0.9756 -9.9221 27.4195)" class="st4" cx="118.4" cy="58.4" rx="2.6" ry="2.5"/>
	</g>
	<g id="_Gruppo_63">
		<ellipse transform="matrix(0.9901 -0.1402 0.1402 0.9901 -7.0137 17.1787)" class="st7" cx="118.4" cy="58.4" rx="1.2" ry="1.2"/>
	</g>
</g>
<g id="_Gruppo_64">
	<g id="_Gruppo_65">
		<path class="st3" d="M138.6,23.1c-4.3,0-7.8-3.5-7.8-7.8s3.5-7.8,7.8-7.8s7.8,3.5,7.8,7.8l0,0C146.4,19.6,142.9,23.1,138.6,23.1z
			 M138.6,7.7c-4.2,0-7.5,3.4-7.5,7.5s3.4,7.5,7.5,7.5s7.5-3.4,7.5-7.5l0,0C146.1,11.1,142.8,7.7,138.6,7.7z"/>
	</g>
	<g id="_Gruppo_66">
		<path class="st3" d="M138.6,21.7c-3.5,0-6.4-2.9-6.4-6.4s2.9-6.4,6.4-6.4s6.4,2.9,6.4,6.4S142.2,21.7,138.6,21.7
			C138.6,21.7,138.6,21.7,138.6,21.7z M138.6,9.1c-3.4,0-6.1,2.7-6.1,6.1s2.7,6.1,6.1,6.1c3.4,0,6.1-2.7,6.1-6.1
			C144.7,11.9,142,9.1,138.6,9.1z"/>
	</g>
	<g id="_Gruppo_67">
		<path class="st3" d="M138.6,20c-2.6,0-4.8-2.1-4.8-4.8s2.1-4.8,4.8-4.8s4.8,2.1,4.8,4.8v0C143.4,17.9,141.2,20,138.6,20z
			 M138.6,10.8c-2.5,0-4.5,2-4.5,4.5c0,2.5,2,4.5,4.5,4.5c2.5,0,4.5-2,4.5-4.5v0C143.1,12.8,141.1,10.8,138.6,10.8L138.6,10.8z"/>
	</g>
	<g id="_Gruppo_68">
		<path class="st3" d="M138.6,18.4c-1.8,0-3.2-1.4-3.2-3.2s1.4-3.2,3.2-3.2c1.8,0,3.2,1.4,3.2,3.2C141.8,17,140.4,18.4,138.6,18.4z
			 M138.6,12.4c-1.6,0-2.9,1.3-2.9,2.9s1.3,2.9,2.9,2.9c1.6,0,2.9-1.3,2.9-2.9S140.2,12.4,138.6,12.4L138.6,12.4z"/>
	</g>
</g>
<g id="_Gruppo_69">
	<g id="_Gruppo_70">
		<circle class="st8" cx="92.1" cy="10.3" r="4.9"/>
	</g>
	<g id="_Gruppo_71">
		<g id="_Gruppo_72">
			<circle class="st1" cx="92.1" cy="7.6" r="0.9"/>
		</g>
		<g id="_Gruppo_73">
			<polyline class="st1" points="93.1,12 93.1,9.4 95.8,7 95.3,6.5 92.7,8.8 91.6,8.8 89,6.5 88.5,7 91.1,9.4 91.1,12 			"/>
		</g>
		<g id="_Gruppo_74">
			<polygon class="st1" points="94.1,15 93.4,15.3 92.2,11.9 93,11.9 			"/>
		</g>
	</g>
	<g id="_Gruppo_75">
		<polygon class="st1" points="90.1,15 90.8,15.3 92.1,11.9 91.2,11.9 		"/>
	</g>
</g>
<g id="_Gruppo_76">
	<path class="st7" d="M132.4,37.5c0.1-0.5,0.1-1.1,0-1.7l1.1-0.9l-0.4-1l-1.4,0.2c-0.3-0.5-0.7-0.9-1.2-1.2l0.2-1.5l-1-0.4l-0.9,1.2
		c-0.6-0.1-1.1-0.1-1.7,0l-0.9-1.1l-1,0.4l0.2,1.4c-0.5,0.3-0.8,0.7-1.2,1.2l-1.5-0.2l-0.4,1l1.2,0.9c-0.1,0.5-0.1,1.1,0,1.7
		l-1.1,0.9l0.4,1l1.4-0.2c0.3,0.5,0.7,0.9,1.2,1.2l-0.2,1.5l1,0.4l0.9-1.2c0.6,0.1,1.1,0.1,1.7,0l0.9,1.1l1-0.4l-0.2-1.4
		c0.5-0.3,0.9-0.7,1.2-1.2l1.4,0.2l0.4-1L132.4,37.5z M128.6,40c-1.8,0.4-3.7-0.7-4.1-2.6c-0.4-1.8,0.7-3.7,2.6-4.1
		c1.8-0.4,3.7,0.7,4.1,2.6c0,0,0,0,0,0C131.5,37.8,130.4,39.6,128.6,40z"/>
</g>
<g id="_Gruppo_77">
	<path class="st7" d="M118.5,64.3c-3.3,0-5.9-2.7-5.9-5.9c0-0.8,0.2-1.6,0.5-2.3l0.1,0.1l-0.1-0.1l9.5-22.1c1.3-3,4.8-4.4,7.8-3.1
		c3,1.3,4.4,4.8,3.1,7.8l-9.5,22.1c-0.6,1.4-1.8,2.6-3.2,3.1C120,64.1,119.2,64.3,118.5,64.3z M128,30.6c-2.2,0-4.2,1.3-5.1,3.4
		l-9.6,22.1c-1.2,2.8,0.1,6.1,2.9,7.4c2.8,1.2,6.1-0.1,7.4-2.9l0,0l9.5-22.1c1.2-2.8-0.1-6.1-2.9-7.4
		C129.6,30.8,128.8,30.6,128,30.6L128,30.6z"/>
</g>
<g id="_Gruppo_78">
	<path class="st2" d="M103.6,61.9c-0.6,1.3-0.9,2.7-1,4.1c-0.2,2.1-0.1,4.2,0.4,6.2c0.2,1.8,4.7,16.8,4.7,16.8l-2.2,10.1h24.7
		l0.4-4.7l9.9,1.1l0.7-12.5l4.7-0.2L141,70.3v-7.1c-0.1-0.4-0.2-0.8-0.3-1.3L103.6,61.9z"/>
</g>
<g id="_Gruppo_79">
	<rect x="81.7" y="46.1" class="st1" width="2.7" height="0.5"/>
</g>
<g id="_Gruppo_80">
	<path class="st4" d="M81.3,43.1c-0.9-0.6-1.5-1.7-1.6-2.8c0-1.8,1.5-3.3,3.3-3.3c1.8,0,3.3,1.5,3.3,3.3c0,1.1-0.5,2.1-1.4,2.7
		c-0.5,0.5-0.7,1.1-0.6,1.7h-2.7C81.7,44.7,82,43.6,81.3,43.1z"/>
</g>
<g id="_Gruppo_81">
	<polyline class="st2" points="81.8,45 84.4,45 81.7,45.7 84.4,45.7 	"/>
</g>
<g id="_Gruppo_82">
	<rect x="85.3" y="36.4" transform="matrix(0.6592 -0.752 0.752 0.6592 1.7701 77.0366)" class="st1" width="1.2" height="0.3"/>
</g>
<g id="_Gruppo_83">
	<rect x="83.6" y="35.7" transform="matrix(0.2472 -0.969 0.969 0.2472 28.6649 108.6013)" class="st1" width="1.2" height="0.3"/>
</g>
<g id="_Gruppo_84">
	<rect x="82" y="35.3" transform="matrix(0.9632 -0.2688 0.2688 0.9632 -6.6117 23.4067)" class="st1" width="0.3" height="1.2"/>
</g>
<g id="_Gruppo_85">
	<rect x="80.3" y="36" transform="matrix(0.7763 -0.6304 0.6304 0.7763 -5.0621 58.8682)" class="st1" width="0.3" height="1.2"/>
</g>
<g id="_Gruppo_86">
	<rect x="86.4" y="37.8" transform="matrix(0.886 -0.4638 0.4638 0.886 -7.6993 44.6529)" class="st1" width="1.2" height="0.3"/>
</g>
<g id="_Gruppo_87">
	<rect x="78.9" y="37.1" transform="matrix(0.6135 -0.7897 0.7897 0.6135 0.777 77.0095)" class="st1" width="0.3" height="1.2"/>
</g>
<g id="_Gruppo_88">
	<path class="st1" d="M83.4,43.8h-0.3c0-0.1,0.1-2.5,1.1-3.3h-2.3c0.4,0.4,0.8,1.2,0.9,3.3h-0.3c0-2-0.5-2.8-0.8-3.1
		c-0.1-0.1-0.2-0.2-0.4-0.2l0,0v-0.3h0.1h3.5v0.3C83.5,40.8,83.5,43.8,83.4,43.8z"/>
</g>
<g id="_Gruppo_89">
	<path class="st8" d="M172.6,54.4v-5c0.8-0.3,1.3-1.2,1-2c-0.1-0.4-0.4-0.7-0.7-0.9v1.4h-1.6v-1.4c-0.8,0.4-1.1,1.4-0.6,2.2
		c0.2,0.3,0.5,0.6,0.9,0.7v5c-0.8,0.3-1.3,1.2-1,2.1c0.3,0.8,1.2,1.3,2.1,1s1.3-1.2,1-2.1C173.4,54.9,173,54.6,172.6,54.4
		L172.6,54.4z M172.6,56.8h-1l-0.5-0.9l0.5-0.9h1l0.5,0.9L172.6,56.8z"/>
</g>
<g id="_Gruppo_90">
	<g id="_Gruppo_91">
		<path class="st8" d="M166.9,52.5l1.2,0c0.4,0,0.6,0.3,0.6,0.6l0,3.7c0,0.4-0.3,0.6-0.6,0.6l-1.2,0c-0.4,0-0.6-0.3-0.6-0.6l0-3.7
			C166.2,52.8,166.5,52.5,166.9,52.5z"/>
	</g>
	<g id="_Gruppo_92">
		<path class="st1" d="M168,53.2L168,53.2c0.2,0,0.3,0.1,0.3,0.3l0,2.8c0,0.2-0.1,0.3-0.3,0.3l0,0c-0.2,0-0.3-0.1-0.3-0.3l0-2.8
			C167.7,53.4,167.8,53.2,168,53.2z"/>
	</g>
	<g id="_Gruppo_93">
		<path class="st1" d="M167.3,52.7L167.3,52.7c0.2,0,0.3,0.1,0.3,0.3v2.8c0,0.2-0.1,0.3-0.3,0.3l0,0c-0.2,0-0.3-0.1-0.3-0.3V53
			C167,52.8,167.1,52.7,167.3,52.7z"/>
	</g>
	<g id="_Gruppo_94">
		<path class="st8" d="M168,52.3c0-0.1,0.1-0.2,0.2-0.3h-1.5c0.1,0,0.2,0.2,0.2,0.3c0,0.1-0.1,0.2-0.2,0.2h1.5
			C168.1,52.5,168,52.4,168,52.3z"/>
	</g>
	<g id="_Gruppo_95">
		<path class="st8" d="M166.7,51.4l1.5,0c0.2,0,0.3,0.1,0.3,0.3l0,0c0,0.2-0.1,0.3-0.3,0.3l-1.5,0c-0.2,0-0.3-0.1-0.3-0.3l0,0
			C166.4,51.5,166.6,51.4,166.7,51.4z"/>
	</g>
	<g id="_Gruppo_96">
		<polygon class="st8" points="167.2,46.5 167.3,47.7 167.3,51.4 167.7,51.4 167.7,47.7 167.9,46.5 		"/>
	</g>
</g>
<g id="_Gruppo_97">
	<path class="st7" d="M161.5,52.1h-1.2v-0.3h1.2V52.1z M159.2,52.1H158v-0.3h1.2V52.1z M156.9,52.1h-1.2v-0.3h1.2V52.1z M154.6,52.1
		h-1.2v-0.3h1.2V52.1z M152.3,52.1h-1.2v-0.3h1.2V52.1z M150,52.1h-1.2v-0.3h1.1L150,52.1z M147.7,52.1h-1.2v-0.3h1.2V52.1z
		 M145.4,52.1h-1.2v-0.3h1.2V52.1z M143.1,52.1h-1.1v-0.3h1.2L143.1,52.1z M140.7,52.1c-0.4,0-0.8,0-1.2-0.1v-0.3
		c0.4,0,0.8,0.1,1.1,0.1L140.7,52.1z M138.4,51.9c-0.4-0.1-0.8-0.2-1.1-0.3l0.1-0.3c0.4,0.1,0.7,0.2,1.1,0.3L138.4,51.9z
		 M136.2,51.2c-0.4-0.2-0.7-0.4-1-0.6l0.2-0.2c0.3,0.2,0.6,0.4,1,0.6L136.2,51.2z M134.3,49.8c-0.2-0.3-0.4-0.6-0.6-1l0.3-0.1
		c0.1,0.4,0.3,0.7,0.5,1L134.3,49.8z M133.5,47.6c0-0.2,0-0.5,0.1-0.7l0,0c0,0,0-0.2,0-0.5h0.3c0,0.3,0,0.5,0,0.5
		c0,0.2-0.1,0.4-0.1,0.6L133.5,47.6z M134,45.3h-0.3c0-0.3,0-0.7,0.1-1.2h0.3C134,44.6,134,44.9,134,45.3L134,45.3z M134.1,43h-0.3
		c0-0.4,0-0.7,0-1.2h0.3C134.1,42.2,134.1,42.6,134.1,43L134.1,43z M134.1,40.7h-0.3c0-0.4,0-0.8,0-1.2h0.3
		C134.1,39.9,134.1,40.3,134.1,40.7L134.1,40.7z M133.8,38.4c0-0.4,0-0.8,0-1.2h0.3c0,0.4,0,0.8,0,1.2H133.8z M133.8,36.1
		c0-0.4-0.1-0.8-0.2-1.1l0.3-0.1c0.1,0.4,0.1,0.8,0.2,1.2L133.8,36.1z M133.3,33.9c-0.1-0.4-0.3-0.7-0.6-1l0.2-0.2
		c0.2,0.3,0.4,0.6,0.6,1L133.3,33.9z M132,32.1c-0.3-0.3-0.6-0.5-0.9-0.7l0.2-0.2c0.3,0.2,0.6,0.4,0.9,0.7L132,32.1z M130.1,30.9
		c-0.3-0.1-0.7-0.3-1.1-0.4l0.1-0.3c0.4,0.1,0.7,0.2,1.1,0.4L130.1,30.9z M127.9,30.3c-0.4-0.1-0.8-0.1-1.1-0.1v-0.3
		c0.4,0,0.8,0.1,1.2,0.1L127.9,30.3z M124.5,30.1v-0.3h0.7h0.4v0.3h-0.4L124.5,30.1z M123.3,30.1h-1.1v-0.3h1.2L123.3,30.1z
		 M121,30.1h-1.1v-0.3h1.2L121,30.1z M118.7,30.1h-1.1v-0.3h1.2L118.7,30.1z M116.4,30.1h-1.1v-0.3h1.2L116.4,30.1z M114.1,30.1H113
		v-0.3h1.2L114.1,30.1z M111.8,30.1h-1.1v-0.3h1.2L111.8,30.1z"/>
</g>
<g id="_Gruppo_98">
	<ellipse id="_Tracciato_5" class="st1" cx="326.9" cy="44.6" rx="11.9" ry="4.5"/>
	<ellipse id="_Tracciato_6" class="st1" cx="331" cy="40.1" rx="11.9" ry="4.5"/>
	<ellipse id="_Tracciato_7" class="st1" cx="336" cy="44" rx="11.9" ry="4.5"/>
	<ellipse id="_Tracciato_8" class="st1" cx="334.8" cy="46.9" rx="11.9" ry="4.5"/>
</g>
<g id="_Gruppo_99">
	<ellipse id="_Tracciato_9" class="st1" cx="196.1" cy="76.3" rx="11.9" ry="4.5"/>
	<ellipse id="_Tracciato_10" class="st1" cx="200.3" cy="71.8" rx="11.9" ry="4.5"/>
	<ellipse id="_Tracciato_11" class="st1" cx="205.3" cy="75.8" rx="11.9" ry="4.5"/>
	<ellipse id="_Tracciato_12" class="st1" cx="204.1" cy="78.6" rx="11.9" ry="4.5"/>
</g>
<g class="st9">
	<g id="_Gruppo_101">
		<ellipse id="_Tracciato_17" class="st1" cx="234.3" cy="23.3" rx="21.1" ry="4.9"/>
		<ellipse id="_Tracciato_18" class="st1" cx="241.6" cy="18.4" rx="21.1" ry="4.9"/>
		<ellipse id="_Tracciato_19" class="st1" cx="250.4" cy="22.7" rx="21.1" ry="4.9"/>
		<ellipse id="_Tracciato_20" class="st1" cx="248.3" cy="25.8" rx="21.1" ry="4.9"/>
	</g>
	<g id="_Gruppo_102">
		<ellipse id="_Tracciato_21" class="st1" cx="189.9" cy="34.4" rx="15.3" ry="9.7"/>
		<ellipse id="_Tracciato_22" class="st1" cx="201.7" cy="24.6" rx="18.3" ry="9.7"/>
		<ellipse id="_Tracciato_23" class="st1" cx="233.8" cy="33.2" rx="16.7" ry="9.7"/>
		<ellipse id="_Tracciato_24" class="st1" cx="228.2" cy="39.5" rx="14.2" ry="9.7"/>
		<ellipse id="_Tracciato_25" class="st1" cx="214" cy="33.2" rx="14.2" ry="9.7"/>
		<ellipse id="_Tracciato_26" class="st1" cx="208.5" cy="40.3" rx="14.2" ry="9.7"/>
	</g>
</g>
<g id="_Gruppo_153">
	<ellipse id="_Tracciato_33" class="st1" cx="478.6" cy="58.9" rx="15" ry="9.5"/>
	<ellipse id="_Tracciato_34" class="st1" cx="467.1" cy="68.4" rx="17.9" ry="9.5"/>
	<ellipse id="_Tracciato_35" class="st1" cx="435.6" cy="60.1" rx="16.4" ry="9.5"/>
	<ellipse id="_Tracciato_36" class="st1" cx="441.1" cy="53.9" rx="13.9" ry="9.5"/>
	<ellipse id="_Tracciato_37" class="st1" cx="455" cy="60.1" rx="13.9" ry="9.5"/>
	<ellipse id="_Tracciato_38" class="st1" cx="460.3" cy="53.1" rx="13.9" ry="9.5"/>
</g>
<g class="st10">
	<path class="st11" d="M342.2,96.2c-0.3,1.1-0.5,2.3-0.6,3.4h4.2c0-0.2,0-0.4,0.1-0.6L342.2,96.2z"/>
	<path class="st11" d="M348.1,93.4c0.1-0.1,0.1-0.2,0.2-0.3c0-3.3,0-7.2,0-11.6l-5.5,12.7c-0.2,0.4-0.3,0.8-0.4,1.3l1-2.6
		L348.1,93.4z"/>
	<path class="st11" d="M374.6,98.9c0,0.3,0.1,0.5,0.1,0.8h2.1l-1.4-1.4L374.6,98.9z"/>
	<path class="st11" d="M348.3,79.1c0-10.3,0-23.5-0.1-40.4v-0.1v-4c0-12.7,3.9-24.5,10.5-34.3h-24.5l0,75.6
		c2.8,6.6,4.3,13.8,4.3,21.3v2.4h1.9c0.2-2,0.7-3.9,1.5-5.8L348.3,79.1z M349.7,5.4h3.9v1h-3.9V5.4z M338.2,6.3h-3.9v-1h3.9V6.3z
		 M341.8,5.4h3.9l0.2,1h-4.1V5.4z"/>
	<path class="st11" d="M372.7,77.6c0,6.2,0,11.3,0,15.6l2.4-0.3l1.1-1.9l7.4,1.9c0.6-0.7,1.3-1.3,1.9-1.9l8.9-20.7h-3.2
		C384.1,70.4,377.6,73.1,372.7,77.6z"/>
	<path class="st11" d="M289.2,52.7v14.9l-33-20.1l33-20.1v15.5c18.7,1.8,34.6,13.1,43,28.9V0.3h-85.7v39.9l0.1,0l0.1,1
		c-0.1,0-0.1,0-0.2,0.1v58.4h82.4v-2.4C328.9,74.2,311.6,55.2,289.2,52.7z M248.4,29.1l2.6-2.9l0.7,0.6l-2.6,2.9L248.4,29.1z
		 M252.1,34l-0.5-0.9l3.5-1.8l0.5,0.9L252.1,34z"/>
	<path class="st11" d="M403,25.8C403,25.8,403,25.8,403,25.8c-1.4-6.2-7.5-10.1-13.7-8.7c-4.9,1.1-8.3,5.1-8.9,9.8h22.8
		C403.2,26.6,403.1,26.2,403,25.8z"/>
	<path class="st11" d="M372.7,73.8c5.1-3.9,11.6-6.3,18.5-6.3l4.5,0l6.9-16.1h-30C372.7,59.9,372.7,67.3,372.7,73.8z"/>
	<path class="st11" d="M379.2,19.8c1.1-1.6,2.4-2.9,3.9-4l-0.6-4.9l3.3-1.5l3.1,3.9c1.9-0.3,3.8-0.3,5.6,0l3.1-3.9l3.6,1.4l-0.5,4.9
		c1.6,1.1,2.9,2.4,4,3.9l4.9-0.6l1.2,2.7c-1.5-5.3-5.3-9.9-10.7-12.2c-2.4-1-4.9-1.6-7.5-1.6c-4.9,0-9.4,1.9-12.9,5
		c-1.4,2-2.7,4.2-3.7,6.5L379.2,19.8z"/>
	<path class="st11" d="M407.4,27h4.1c0-1.5-0.2-3-0.5-4.5l-3.7,3C407.3,26,407.4,26.5,407.4,27z"/>
	<path class="st11" d="M374.3,23.8c-0.3,1-0.6,2.1-0.8,3.2h3.2c0-0.4,0.1-0.8,0.2-1.2L374.3,23.8z"/>
	<path class="st11" d="M382.8,9.1c2.3-1.3,4.8-2.2,7.5-2.5c-0.6-0.1-1.3-0.1-1.9-0.2v-1c1.3,0.1,2.6,0.3,3.9,0.5l0,0.5
		c2.6-0.1,5.3,0.4,7.8,1.4c3.9,1.5,7,4.2,9.2,7.4l0,0c0.8,1.1,1.4,2.2,2,3.5l-0.1,0.1c0.5,1.2,0.9,2.5,1.1,3.8l0.2,0
		c0.3,1.3,0.5,2.6,0.5,3.9l-0.4,0c0,0.2,0,0.3,0,0.5h14.1V0.3h-31.5C390.6,2.4,386.3,5.4,382.8,9.1z"/>
	<path class="st11" d="M390.5,87.6l0.1-5.8l-3.4,7.8C388.2,88.9,389.3,88.2,390.5,87.6z"/>
	<path class="st11" d="M411.2,64.6c0-0.6,0.1-1.2,0.2-1.8c0,0,0-0.6,0.1-1.5h1c-0.1,1.1-0.1,1.7-0.1,1.7c-0.1,0.4-0.1,0.8-0.2,1.2
		c5.3-2.8,9.5-7.3,12.1-12.8h-20.5l-6.9,16.1l2.3,0C403.5,67.4,407.5,66.3,411.2,64.6z M411.9,53.4h1c0,1.5-0.1,2.8-0.1,3.9l0,0.1
		h-1C411.8,56.2,411.9,54.9,411.9,53.4z"/>
	<polygon class="st11" points="539.6,90.4 538,93.3 539.6,96.2 543,96.2 544.7,93.3 543,90.4 	"/>
	<path class="st11" d="M526.4,0.3l-25.9,21.5V0.3h-70.8V27h27.4v-9.3l33,20.1l-33,20.1v-6.5h-29.7c-4.6,11.1-15.5,18.9-28.2,19
		l-3.6,0.1l-4,9.3l4.7-1.3l3.9,6.6c2.9-0.2,5.9,0.2,8.7,1.1l5.5-5.3l5,2.9l-1.9,7.4c2.2,1.9,3.9,4.3,5.3,6.9l7.6,0.1l0.4,1.5h126.8
		V0.3H526.4z M413.8,72.6c-0.8-1.1-1.5-2.3-1.9-3.6l0.9-0.3c0.4,1.2,1,2.3,1.8,3.3L413.8,72.6z M420.7,77.4c-1.2-0.5-2.4-1.2-3.4-2
		l0.6-0.8c1,0.7,2.1,1.4,3.3,1.9L420.7,77.4z M428.2,79.6c-1.3-0.2-2.6-0.5-3.8-0.9l0.3-0.9c1.2,0.4,2.5,0.6,3.7,0.9L428.2,79.6z
		 M435.9,80.5c-1.3,0-2.7-0.1-3.9-0.3l0.1-1c1.2,0.1,2.5,0.2,3.8,0.3L435.9,80.5z M443.7,80.5h-3.9v-1h3.9V80.5z M451.5,80.5h-3.9
		v-1h3.9V80.5z M459.2,80.5h-3.9v-1h3.9V80.5z M466.9,80.5H463v-1h3.9V80.5z M470.6,80.5v-1h3.9l0.2,1H470.6z M478.3,80.5v-1h3.9
		l0.2,1H478.3z M486,80.5v-1h3.9l0.2,1H486z M497.8,80.5h-3.9v-1h3.9V80.5z M527.2,61.6l-0.5,4l0,12.5l-1.5,0l0-12.5l-0.4-4
		L527.2,61.6z M523.4,78.1l5.1,0c0.5,0,1,0.4,1,1c0,0.5-0.4,1-1,1l-5.1,0c-0.5,0-1-0.4-1-1S522.8,78.1,523.4,78.1z M501.7,87.2v-6.7
		h0v-1h0v-6.7l11.9,7.2L501.7,87.2z M530.1,96.3c0,1.2-1,2.2-2.2,2.2l-4.1,0c-1.2,0-2.2-1-2.2-2.2l0.1-12.3c0-1.1,0.8-2,1.9-2.1
		c0.2-0.1,0.4-0.3,0.5-0.6c0.1-0.5-0.1-1-0.6-1.2c0.1,0,0.2,0,0.3,0h4.5h0.2c-0.4,0.1-0.7,0.5-0.7,0.9c0,0.4,0.3,0.7,0.6,0.8
		c1,0.2,1.8,1.1,1.8,2.2L530.1,96.3z M543.1,98.4c-2.8,1-5.9-0.4-7-3.2c-1-2.8,0.4-5.9,3.2-7V71.3c-1.2-0.4-2.3-1.3-2.9-2.5
		c-1.4-2.6-0.5-5.9,2.1-7.4v4.8h5.2v-4.8c1.1,0.6,2,1.7,2.5,2.9c1,2.8-0.4,5.9-3.2,7v16.9l0,0c1.5,0.5,2.7,1.7,3.2,3.2
		C547.4,94.2,545.9,97.3,543.1,98.4z"/>
	<path class="st2" d="M348.2,38.6v0.1c0.1,16.9,0.1,30.1,0.1,40.4l21.1-48.8V27h1.4l3.4-7.9c1.7-4.4,4.8-7.8,8.6-10
		c3.5-3.7,7.7-6.7,12.4-8.8h-36.6c-6.6,9.8-10.5,21.6-10.5,34.3V38.6z M380.7,5.4h2.5c0,0,0.5,0,1.4,0v1c-0.9,0-1.4,0-1.4,0h-2.5
		V5.4z M372.9,5.4h3.9v1h-3.9V5.4z M365.2,5.4h3.9v1h-3.9V5.4z M357.4,5.4h3.9v1h-3.9V5.4z"/>
	<path class="st2" d="M374.3,23.8l-0.8-0.7l-1.6,3.8h1.7C373.7,25.9,374,24.8,374.3,23.8z"/>
	<path class="st2" d="M348.3,93.1c1-1.4,2.2-2.6,3.5-3.5l-0.6-4.6l3.3-1.4l2.9,3.7c1.7-0.3,3.5-0.3,5.2,0c2-5.4,5.5-10,10-13.5
		c0-6.4,0-13.9,0-22.5h-3.3V32.7l-21.1,48.9C348.3,86,348.3,89.8,348.3,93.1z"/>
	<path class="st2" d="M379.7,13c-1.9,1.8-3.5,3.9-4.5,6.4l0.8,0.1C377,17.1,378.2,15,379.7,13z"/>
	<path class="st2" d="M367.3,84.2l1.6,0.7l-0.5,4.6c1.5,1,2.8,2.3,3.8,3.7l0.4-0.1c0-4.3,0-9.5,0-15.6
		C370.6,79.5,368.8,81.7,367.3,84.2z"/>
	<path class="st2" d="M334.2,75.9l0,23.7h4.3v-2.4C338.5,89.6,337,82.4,334.2,75.9z"/>
	<path class="st2" d="M289.2,42.9v9.7c22.4,2.6,39.7,21.6,39.7,44.6v2.4h3.3V71.8C323.9,56,307.9,44.7,289.2,42.9z"/>
	<path class="st2" d="M427.4,51.3h29.7V27h-27.4v12.8C429.7,43.8,428.9,47.7,427.4,51.3z"/>
	<path class="st2" d="M394.4,39.6L394.4,39.6C394.3,39.6,394.3,39.5,394.4,39.6c5.8-1.3,9.6-6.8,8.9-12.6h-22.8
		c-0.2,1.3-0.1,2.6,0.2,3.9C382,37.1,388.2,41,394.4,39.6z"/>
	<path class="st2" d="M407.2,31.1l3,2.4c0.8-2.2,1.2-4.4,1.2-6.5h-4.1C407.6,28.3,407.5,29.7,407.2,31.1z"/>
	<path class="st2" d="M426.8,39.8V27h-14.1c0,1.1-0.2,2.2-0.4,3.4h0.9c0,1.3,0,2.6,0,3.9h-1c0-1.1,0-2.2,0-3.4
		c-0.2,1-0.5,1.9-0.9,2.9c-0.1,0.4-0.3,0.7-0.5,1.1l0,0.1l-1.1,2.8l-0.1,0l-5.9,13.7h20.5C425.9,47.8,426.8,43.9,426.8,39.8z
		 M413,49.5l0,0.2h-1c0-1.2,0-2.5,0.1-3.9h1C413.1,47,413,48.3,413,49.5z M413.1,41.9h-1c0-1.2,0-2.5,0-3.9h1c0,1.2,0,2.4,0,3.7
		L413.1,41.9z"/>
	<polygon class="st2" points="369.4,30.3 370.8,27 369.4,27 	"/>
	<path class="st2" d="M372.7,51.3h30l5.9-13.8l-3.8-0.4c-1.1,1.6-2.4,3-4,4.1l0.6,4.9l-3.4,1.5l-3.1-3.8c-1.9,0.3-3.8,0.3-5.7,0
		l-3,3.9l-3.5-1.4l0.5-4.9c-1.6-1.1-2.9-2.4-4-3.9l-4.9,0.6l-1.5-3.4l3.9-3.1c-0.3-1.5-0.3-3-0.2-4.4h-3.2h-1.7l-2.5,5.7v18.6H372.7
		z"/>
	<path class="st3" d="M372.7,73.8c-4.5,3.4-8,8.1-10,13.5c0,0,0.1,0,0.1,0l2.9-3.7l1.7,0.7c1.4-2.5,3.3-4.7,5.4-6.7
		c4.9-4.5,11.4-7.2,18.5-7.2h3.2l1.3-2.9l-4.5,0C384.2,67.4,377.8,69.8,372.7,73.8z"/>
	<path class="st3" d="M426.8,39.8c0,4.1-0.9,8-2.6,11.6c-2.5,5.5-6.8,10-12.1,12.8c0,0.3,0,0.6,0,0.9l-1,0.1c0-0.2,0-0.3,0-0.5
		c-3.6,1.8-7.7,2.8-12,2.8l-2.3,0l-1.3,2.9l3.6-0.1c12.8,0,23.7-7.8,28.2-19c1.5-3.6,2.3-7.5,2.3-11.6V27V0.3h-2.9V27V39.8z"/>
	<polygon class="st4" points="334.2,0.3 332.2,0.3 332.2,71.8 332.2,99.6 334.2,99.6 334.2,75.9 	"/>
	<polygon class="st2" points="526.4,0.3 500.5,0.3 500.5,21.9 	"/>
	<polygon class="st2" points="457.1,57.8 490.1,37.7 457.1,17.7 457.1,27 457.1,51.3 	"/>
	<polygon class="st2" points="256.2,47.5 289.2,67.6 289.2,52.7 289.2,42.9 289.2,27.4 	"/>
	<polygon class="st1" points="501.7,79.5 505.5,79.5 505.5,80.5 501.7,80.5 501.7,87.2 513.6,80 501.7,72.7 	"/>
	<path class="st4" d="M383.6,92.9l-7.4-1.9l-1.1,1.9l1.8-0.2l1.4,3.3l-2.8,2.3l1.4,1.4h5l3.7-8.6C384.9,91.6,384.2,92.2,383.6,92.9z
		"/>
	<path class="st4" d="M422.7,98c-1.3-2.6-3.1-4.9-5.3-6.9l1.9-7.4l-5-2.9l-5.5,5.3c-2.8-0.9-5.7-1.3-8.7-1.1l-3.9-6.6l-4.7,1.3
		l-0.9,2.2l-0.1,5.8c-1.2,0.6-2.3,1.3-3.3,2.1l-4.3,10h7.5c2.3-2.8,5.7-4.6,9.6-5c4.7-0.4,9.1,1.6,11.9,5h18.9l-0.4-1.5L422.7,98z"
		/>
	<path class="st5" d="M400,94.7c-3.9,0.3-7.3,2.2-9.6,5h21.5C409.1,96.3,404.7,94.3,400,94.7z"/>
	<path class="st7" d="M375.5,98.2l2.8-2.3l-1.4-3.3l-1.8,0.2l-2.4,0.3l-0.4,0.1c-1-1.5-2.3-2.7-3.8-3.7l0.5-4.6l-1.6-0.7l-1.7-0.7
		l-2.9,3.7c0,0-0.1,0-0.1,0c-1.7-0.3-3.5-0.3-5.2,0l-2.9-3.7l-3.3,1.4l0.6,4.6c-1.4,1-2.6,2.2-3.5,3.5c-0.1,0.1-0.1,0.2-0.2,0.3
		l-4.6-0.5l-1,2.6c-0.1,0.2-0.2,0.5-0.2,0.7l3.7,2.8c0,0.2-0.1,0.4-0.1,0.6h5.9c0.7-3.1,3.2-5.7,6.5-6.4c4.6-1,9.2,1.8,10.3,6.4h6.3
		c0-0.3-0.1-0.5-0.1-0.8L375.5,98.2z"/>
	<path class="st4" d="M358.2,93.2c-3.3,0.7-5.7,3.3-6.5,6.4h4.9c0.6-1,1.6-1.8,2.9-2c1.7-0.2,3.2,0.6,4,2h5
		C367.4,95,362.8,92.2,358.2,93.2z"/>
	<path class="st7" d="M359.5,97.7c-1.3,0.2-2.3,0.9-2.9,2h6.9C362.7,98.3,361.1,97.4,359.5,97.7z"/>
	<path class="st7" d="M376.8,25.8c-0.1,0.4-0.1,0.8-0.2,1.2c-0.2,1.5-0.1,3,0.2,4.4l-3.9,3.1l1.5,3.4l4.9-0.6c1.1,1.5,2.4,2.9,4,3.9
		l-0.5,4.9l3.5,1.4l3-3.9c1.9,0.3,3.8,0.3,5.7,0l3.1,3.8l3.4-1.5l-0.6-4.9c1.6-1.1,2.9-2.5,4-4.1l3.8,0.4l1.3-3.1
		c0.1-0.3,0.2-0.6,0.3-0.9l-3-2.4c0.3-1.4,0.3-2.7,0.2-4.1c0-0.5-0.1-1-0.2-1.5l3.7-3c-0.1-0.3-0.1-0.5-0.2-0.8l-1.2-2.7l-4.9,0.6
		c-1.1-1.5-2.4-2.9-4-3.9l0.5-4.9l-3.6-1.4l-3.1,3.9c-1.9-0.3-3.8-0.3-5.6,0l-3.1-3.9l-3.3,1.5l0.6,4.9c-1.5,1.1-2.9,2.4-3.9,4
		l-3.3-0.4l-0.8-0.1c0,0,0,0,0,0.1l-1.6,3.8l0.8,0.7L376.8,25.8z M380.4,27c0.6-4.7,4-8.7,8.9-9.8c6.2-1.4,12.3,2.5,13.7,8.7
		c0,0,0,0,0,0c0.1,0.4,0.1,0.8,0.2,1.1c0.7,5.8-3.1,11.3-8.9,12.6c0,0,0,0,0,0h0c-6.2,1.4-12.3-2.5-13.7-8.7
		C380.3,29.6,380.3,28.2,380.4,27z"/>
	<polygon class="st7" points="410.8,34.9 409.6,37.6 409.7,37.6 	"/>
	<path class="st7" d="M390.6,81.8l0.9-2.2l4-9.3l1.3-2.9l6.9-16.1l5.9-13.7l1.2-2.7l0-0.1c0.2-0.3,0.3-0.7,0.5-1.1
		c0.4-1,0.7-1.9,0.9-2.9c0-0.2,0-0.3,0-0.5h0.1c0.2-1.1,0.3-2.2,0.4-3.4c0-0.2,0-0.3,0-0.5l-0.6,0c-0.1-1.3-0.2-2.5-0.5-3.8l0.7-0.2
		c-0.3-1.3-0.6-2.6-1.1-3.8l-0.8,0.3c-0.5-1.2-1.1-2.3-1.9-3.3l0.7-0.5c-2.2-3.2-5.3-5.9-9.2-7.4c-2.6-1-5.2-1.5-7.8-1.4l0,0.4
		c-0.6-0.1-1.3-0.2-1.9-0.3c-2.6,0.3-5.2,1.2-7.5,2.5c-3.8,2.2-6.9,5.6-8.6,10l-3.4,7.9l-1.4,3.3l-21.1,48.8L342,93.9
		c-0.8,1.8-1.3,3.8-1.5,5.8h1.1c0.1-1.1,0.3-2.3,0.6-3.4c0.1-0.3,0.2-0.5,0.2-0.7c0.1-0.4,0.3-0.8,0.4-1.3l5.5-12.7l21.1-48.9
		l2.5-5.7l1.6-3.8l1.6-3.8c0,0,0,0,0-0.1c1.1-2.5,2.6-4.6,4.5-6.4c3.4-3.2,8-5,12.9-5c2.6,0,5.2,0.5,7.5,1.6
		c5.4,2.4,9.2,6.9,10.7,12.2c0.1,0.3,0.1,0.5,0.2,0.8c0.3,1.5,0.5,3,0.5,4.5c0,2.2-0.4,4.4-1.2,6.5c-0.1,0.3-0.2,0.6-0.3,0.9
		l-1.3,3.1l-5.9,13.8l-6.9,16.1l-1.3,2.9L385.5,91l-3.7,8.6h1.1l4.3-10L390.6,81.8z M399.6,8.9c-1.2-0.5-2.4-0.9-3.6-1.3l0.3-0.9
		c1.3,0.3,2.5,0.8,3.7,1.3L399.6,8.9z M406.1,12.9c-1-0.9-2-1.6-3.1-2.3l0.5-0.8c1.1,0.7,2.2,1.5,3.2,2.4L406.1,12.9z"/>
	<rect x="248.1" y="27.5" transform="matrix(0.6592 -0.752 0.752 0.6592 64.1937 197.52)" class="st1" width="3.9" height="1"/>
	<rect x="251.7" y="32.2" transform="matrix(0.886 -0.4638 0.4638 0.886 13.7702 121.3499)" class="st1" width="3.9" height="1"/>
	<path class="st1" d="M246.7,40.3L246.7,40.3l-0.1,1c0.1,0,0.1,0,0.2-0.1L246.7,40.3z"/>
	<path class="st8" d="M543.1,88.2L543.1,88.2l0-16.9c2.8-1,4.3-4.1,3.2-7c-0.4-1.2-1.3-2.3-2.5-2.9v4.8h-5.2v-4.8
		c-2.6,1.4-3.6,4.7-2.1,7.4c0.6,1.1,1.7,2,2.9,2.5v16.9c-2.8,1-4.3,4.1-3.2,7c1,2.8,4.1,4.3,7,3.2c2.8-1,4.3-4.1,3.2-7
		C545.8,89.9,544.6,88.7,543.1,88.2z M543,96.2h-3.4l-1.7-2.9l1.7-2.9h3.4l1.7,2.9L543,96.2z"/>
	<path class="st8" d="M528.3,81.8c0.1,0,0.1,0.1,0.2,0.1L528.3,81.8l-4.7,0.1h-0.2c0.1,0,0.1-0.1,0.1-0.1c-1.1,0.2-1.9,1-1.9,2.1
		l-0.1,12.3c0,1.2,1,2.2,2.2,2.2l4.1,0c1.2,0,2.2-1,2.2-2.2l0.1-12.3C530.1,82.9,529.3,82,528.3,81.8z M525.2,94.6
		c0,0.5-0.4,0.9-0.9,0.9l0,0c-0.5,0-0.9-0.4-0.9-0.9l0-9.4c0-0.5,0.4-0.9,0.9-0.9l0,0c0.5,0,0.9,0.4,0.9,0.9L525.2,94.6z
		 M528.5,94.6c0,0.5-0.4,0.9-0.9,0.9l0,0c-0.5,0-0.9-0.4-0.9-0.9l0-9.4c0-0.5,0.4-0.9,0.9-0.9l0,0c0.5,0,0.9,0.4,0.9,0.9L528.5,94.6
		z"/>
	<path class="st1" d="M527.7,84.3L527.7,84.3c-0.5,0-0.9,0.4-0.9,0.9l0,9.4c0,0.5,0.4,0.9,0.9,0.9l0,0c0.5,0,0.9-0.4,0.9-0.9l0-9.4
		C528.6,84.7,528.2,84.3,527.7,84.3z"/>
	<path class="st1" d="M524.4,84.3L524.4,84.3c-0.5,0-0.9,0.4-0.9,0.9l0,9.4c0,0.5,0.4,0.9,0.9,0.9l0,0c0.5,0,0.9-0.4,0.9-0.9l0-9.4
		C525.3,84.7,524.9,84.3,524.4,84.3z"/>
	<path class="st8" d="M523.6,81.9h4.6h0.3c-0.1,0-0.1,0-0.2-0.1c-0.3-0.1-0.6-0.5-0.6-0.8c0-0.4,0.3-0.8,0.7-0.9h-0.2h-4.5
		c-0.1,0-0.2,0-0.3,0c0.5,0.1,0.8,0.7,0.6,1.2c-0.1,0.3-0.3,0.4-0.5,0.6c-0.1,0-0.1,0.1-0.1,0.1H523.6z"/>
	<path class="st8" d="M523.4,80l5.1,0c0.5,0,1-0.4,1-1c0-0.5-0.4-1-1-1l-5.1,0c-0.5,0-1,0.4-1,1S522.8,80,523.4,80z"/>
	<polygon class="st8" points="525.2,78 526.6,78.1 526.7,65.6 527.2,61.6 524.8,61.6 525.2,65.6 	"/>
	<path class="st7" d="M412.5,61.2h-1c-0.1,1-0.1,1.5-0.1,1.5c-0.1,0.6-0.2,1.2-0.2,1.8c0,0.2,0,0.3,0,0.5l1-0.1c0-0.3,0-0.6,0-0.9
		c0-0.4,0.1-0.8,0.2-1.2C412.3,62.9,412.4,62.4,412.5,61.2z"/>
	<path class="st7" d="M412.7,57.3c0.1-1.1,0.1-2.4,0.1-3.9h-1c0,1.5-0.1,2.8-0.2,4L412.7,57.3L412.7,57.3z"/>
	<polygon class="st7" points="486,79.5 486,80.5 490.1,80.5 489.9,79.5 	"/>
	<rect x="334.3" y="5.4" class="st7" width="3.9" height="1"/>
	<rect x="493.9" y="79.5" class="st7" width="3.9" height="1"/>
	<polygon class="st7" points="345.7,5.4 341.8,5.4 341.8,6.3 345.9,6.3 	"/>
	<rect x="455.3" y="79.5" class="st7" width="3.9" height="1"/>
	<path class="st7" d="M411.9,69c0.4,1.3,1.1,2.5,1.9,3.6l0.8-0.7c-0.8-1-1.4-2.1-1.8-3.3L411.9,69z"/>
	<path class="st7" d="M388.4,5.4v1c0.6,0,1.3,0.1,1.9,0.2c0.7,0.1,1.3,0.2,1.9,0.3l0-0.4l0-0.5C391.1,5.7,389.7,5.5,388.4,5.4z"/>
	<path class="st7" d="M417.2,75.4c1.1,0.8,2.2,1.4,3.4,2l0.4-0.9c-1.2-0.5-2.2-1.2-3.3-1.9L417.2,75.4z"/>
	<rect x="439.9" y="79.5" class="st7" width="3.9" height="1"/>
	<rect x="447.6" y="79.5" class="st7" width="3.9" height="1"/>
	<path class="st7" d="M432,80.2c1.3,0.1,2.6,0.3,3.9,0.3l0-1c-1.3,0-2.6-0.1-3.8-0.3L432,80.2z"/>
	<path class="st7" d="M424.4,78.7c1.3,0.4,2.5,0.7,3.8,0.9l0.2-1c-1.3-0.2-2.5-0.5-3.7-0.9L424.4,78.7z"/>
	<rect x="349.7" y="5.4" class="st7" width="3.9" height="1"/>
	<rect x="463" y="79.5" class="st7" width="3.9" height="1"/>
	<polygon class="st7" points="478.3,79.5 478.3,80.5 482.3,80.5 482.2,79.5 	"/>
	<path class="st7" d="M412.5,22.5l-0.2,0l-0.7,0.2c0.3,1.2,0.4,2.5,0.5,3.8l0.6,0l0.4,0C413,25.1,412.8,23.8,412.5,22.5z"/>
	<path class="st7" d="M409.4,15.2L409.4,15.2l-0.8,0.6c0.7,1,1.4,2.1,1.9,3.3l0.8-0.3l0.1-0.1C410.8,17.5,410.1,16.3,409.4,15.2z"/>
	<polygon class="st7" points="470.6,79.5 470.6,80.5 474.6,80.5 474.4,79.5 	"/>
	<rect x="365.2" y="5.4" class="st7" width="3.9" height="1"/>
	<rect x="357.4" y="5.4" class="st7" width="3.9" height="1"/>
	<rect x="372.9" y="5.4" class="st7" width="3.9" height="1"/>
	<path class="st7" d="M384.5,6.3v-1c-0.9,0-1.4,0-1.4,0h-2.5v1h2.5C383.2,6.3,383.7,6.3,384.5,6.3z"/>
	<path class="st7" d="M412.2,34.2h1c0-1.3,0-2.6,0-3.9h-0.9h-0.1c0,0.2,0,0.3,0,0.5C412.2,32,412.2,33.1,412.2,34.2z"/>
	<path class="st7" d="M412,49.7h1l0-0.2c0-1.2,0.1-2.4,0.1-3.7h-1C412,47.2,412,48.4,412,49.7z"/>
	<path class="st7" d="M412.2,38c0,1.4,0,2.7,0,3.9h1l0-0.2c0-1.2,0-2.5,0-3.7H412.2z"/>
	<polygon class="st7" points="505.5,79.5 501.7,79.5 501.6,79.5 501.6,80.5 501.7,80.5 505.5,80.5 	"/>
	<path class="st7" d="M396,7.7c1.2,0.3,2.4,0.8,3.6,1.3L400,8c-1.2-0.5-2.5-0.9-3.7-1.3L396,7.7z"/>
	<path class="st7" d="M403,10.7c1.1,0.7,2.1,1.4,3.1,2.3l0.6-0.7c-1-0.9-2-1.7-3.2-2.4L403,10.7z"/>
</g>
</svg>
